<svg width="16" height="16" viewBox="0 0 16 16" fill="none" xmlns="http://www.w3.org/2000/svg">
<g clip-path="url(#clip0_2703_407)">
<path d="M5.06207 12H8.53668C10.3414 12 11.4254 11.0918 11.4254 9.60352C11.4254 8.50195 10.6637 7.6875 9.52105 7.57031V7.4707C10.3531 7.33008 11.0035 6.53906 11.0035 5.6543C11.0035 4.35352 10.0484 3.54492 8.46051 3.54492H5.06207V12ZM6.37457 7.125V4.6582H8.15582C9.12847 4.6582 9.69683 5.11523 9.69683 5.89453C9.69683 6.69727 9.09332 7.125 7.93316 7.125H6.37457ZM6.37457 10.8867V8.16211H8.19683C9.43316 8.16211 10.0836 8.625 10.0836 9.50977C10.0836 10.4062 9.4566 10.8867 8.27301 10.8867H6.37457Z" fill="black"/>
<path d="M0 4C0 1.79086 1.79086 0 4 0H12C14.2091 0 16 1.79086 16 4V12C16 14.2091 14.2091 16 12 16H4C1.79086 16 0 14.2091 0 12V4ZM4 1C2.34315 1 1 2.34315 1 4V12C1 13.6569 2.34315 15 4 15H12C13.6569 15 15 13.6569 15 12V4C15 2.34315 13.6569 1 12 1H4Z" fill="black"/>
</g>
<defs>
<clipPath id="clip0_2703_407">
<rect width="16" height="16" fill="white"/>
</clipPath>
</defs>
</svg>
